<svg xmlns="http://www.w3.org/2000/svg" width="800" height="500" style="background-color: white;">
<text x="400.0" y="30" text-anchor="middle" font-family="sans-serif" font-size="16">Experiment 1: Saturation Reactivity</text>
<line x1="60" y1="440" x2="740" y2="440" stroke="black" />
<line x1="60" y1="440" x2="60" y2="60" stroke="black" />
<text x="400.0" y="490" text-anchor="middle" font-family="sans-serif">Sampling Steps</text>
<text x="15" y="250.0" text-anchor="middle" font-family="sans-serif" transform="rotate(-90 15,250.0)">Replicas</text>
<circle cx="60.0" cy="364.0" r="3" fill="#1f77b4" />
<circle cx="80.0" cy="364.0" r="3" fill="#1f77b4" />
<circle cx="100.0" cy="364.0" r="3" fill="#1f77b4" />
<circle cx="120.0" cy="364.0" r="3" fill="#1f77b4" />
<circle cx="140.0" cy="364.0" r="3" fill="#1f77b4" />
<circle cx="160.0" cy="364.0" r="3" fill="#1f77b4" />
<circle cx="180.0" cy="364.0" r="3" fill="#1f77b4" />
<circle cx="200.0" cy="364.0" r="3" fill="#1f77b4" />
<circle cx="220.0" cy="364.0" r="3" fill="#1f77b4" />
<circle cx="240.0" cy="364.0" r="3" fill="#1f77b4" />
<circle cx="260.0" cy="288.0" r="3" fill="#1f77b4" />
<circle cx="280.0" cy="288.0" r="3" fill="#1f77b4" />
<circle cx="300.0" cy="288.0" r="3" fill="#1f77b4" />
<circle cx="320.0" cy="288.0" r="3" fill="#1f77b4" />
<circle cx="340.0" cy="288.0" r="3" fill="#1f77b4" />
<circle cx="360.0" cy="136.0" r="3" fill="#1f77b4" />
<circle cx="380.0" cy="136.0" r="3" fill="#1f77b4" />
<circle cx="400.0" cy="136.0" r="3" fill="#1f77b4" />
<circle cx="420.0" cy="136.0" r="3" fill="#1f77b4" />
<circle cx="440.0" cy="136.0" r="3" fill="#1f77b4" />
<circle cx="460.0" cy="136.0" r="3" fill="#1f77b4" />
<circle cx="480.0" cy="136.0" r="3" fill="#1f77b4" />
<circle cx="500.0" cy="136.0" r="3" fill="#1f77b4" />
<circle cx="520.0" cy="136.0" r="3" fill="#1f77b4" />
<circle cx="540.0" cy="136.0" r="3" fill="#1f77b4" />
<circle cx="560.0" cy="136.0" r="3" fill="#1f77b4" />
<circle cx="580.0" cy="136.0" r="3" fill="#1f77b4" />
<circle cx="600.0" cy="136.0" r="3" fill="#1f77b4" />
<circle cx="620.0" cy="136.0" r="3" fill="#1f77b4" />
<circle cx="640.0" cy="136.0" r="3" fill="#1f77b4" />
<circle cx="660.0" cy="136.0" r="3" fill="#1f77b4" />
<circle cx="680.0" cy="136.0" r="3" fill="#1f77b4" />
<circle cx="700.0" cy="136.0" r="3" fill="#1f77b4" />
<circle cx="720.0" cy="136.0" r="3" fill="#1f77b4" />
<circle cx="740.0" cy="136.0" r="3" fill="#1f77b4" />
<polyline points="60.0,364.0 80.0,364.0 100.0,364.0 120.0,364.0 140.0,364.0 160.0,364.0 180.0,364.0 200.0,364.0 220.0,364.0 240.0,364.0 260.0,288.0 280.0,288.0 300.0,288.0 320.0,288.0 340.0,288.0 360.0,136.0 380.0,136.0 400.0,136.0 420.0,136.0 440.0,136.0 460.0,136.0 480.0,136.0 500.0,136.0 520.0,136.0 540.0,136.0 560.0,136.0 580.0,136.0 600.0,136.0 620.0,136.0 640.0,136.0 660.0,136.0 680.0,136.0 700.0,136.0 720.0,136.0 740.0,136.0" fill="none" stroke="#1f77b4" stroke-width="2" />
<rect x="600" y="60" width="10" height="10" fill="#1f77b4" />
<text x="620" y="70" font-family="sans-serif" font-size="12">llm-d-sim-deployment (A100)</text>
</svg>