<svg xmlns="http://www.w3.org/2000/svg" width="800" height="500" style="background-color: white;">
<text x="400.0" y="30" text-anchor="middle" font-family="sans-serif" font-size="16">Experiment 2: Cost-Aware Scaling</text>
<line x1="60" y1="440" x2="740" y2="440" stroke="black" />
<line x1="60" y1="440" x2="60" y2="60" stroke="black" />
<text x="400.0" y="490" text-anchor="middle" font-family="sans-serif">Sampling Steps</text>
<text x="15" y="250.0" text-anchor="middle" font-family="sans-serif" transform="rotate(-90 15,250.0)">Replicas</text>
<circle cx="60.0" cy="440.0" r="3" fill="#1f77b4" />
<circle cx="88.33333333333333" cy="440.0" r="3" fill="#1f77b4" />
<circle cx="116.66666666666666" cy="440.0" r="3" fill="#1f77b4" />
<circle cx="145.0" cy="440.0" r="3" fill="#1f77b4" />
<circle cx="173.33333333333331" cy="440.0" r="3" fill="#1f77b4" />
<circle cx="201.66666666666669" cy="376.6666666666667" r="3" fill="#1f77b4" />
<circle cx="230.0" cy="313.33333333333337" r="3" fill="#1f77b4" />
<circle cx="258.33333333333337" cy="250.0" r="3" fill="#1f77b4" />
<circle cx="286.66666666666663" cy="186.66666666666669" r="3" fill="#1f77b4" />
<circle cx="315.0" cy="186.66666666666669" r="3" fill="#1f77b4" />
<circle cx="343.33333333333337" cy="186.66666666666669" r="3" fill="#1f77b4" />
<circle cx="371.66666666666663" cy="186.66666666666669" r="3" fill="#1f77b4" />
<circle cx="400.0" cy="186.66666666666669" r="3" fill="#1f77b4" />
<circle cx="428.3333333333333" cy="186.66666666666669" r="3" fill="#1f77b4" />
<circle cx="456.6666666666667" cy="186.66666666666669" r="3" fill="#1f77b4" />
<circle cx="485.0" cy="186.66666666666669" r="3" fill="#1f77b4" />
<circle cx="513.3333333333333" cy="186.66666666666669" r="3" fill="#1f77b4" />
<circle cx="541.6666666666667" cy="186.66666666666669" r="3" fill="#1f77b4" />
<circle cx="570.0" cy="186.66666666666669" r="3" fill="#1f77b4" />
<circle cx="598.3333333333333" cy="186.66666666666669" r="3" fill="#1f77b4" />
<circle cx="626.6666666666667" cy="186.66666666666669" r="3" fill="#1f77b4" />
<circle cx="655.0" cy="186.66666666666669" r="3" fill="#1f77b4" />
<circle cx="683.3333333333333" cy="186.66666666666669" r="3" fill="#1f77b4" />
<circle cx="711.6666666666667" cy="186.66666666666669" r="3" fill="#1f77b4" />
<circle cx="740.0" cy="186.66666666666669" r="3" fill="#1f77b4" />
<polyline points="60.0,440.0 88.33333333333333,440.0 116.66666666666666,440.0 145.0,440.0 173.33333333333331,440.0 201.66666666666669,376.6666666666667 230.0,313.33333333333337 258.33333333333337,250.0 286.66666666666663,186.66666666666669 315.0,186.66666666666669 343.33333333333337,186.66666666666669 371.66666666666663,186.66666666666669 400.0,186.66666666666669 428.3333333333333,186.66666666666669 456.6666666666667,186.66666666666669 485.0,186.66666666666669 513.3333333333333,186.66666666666669 541.6666666666667,186.66666666666669 570.0,186.66666666666669 598.3333333333333,186.66666666666669 626.6666666666667,186.66666666666669 655.0,186.66666666666669 683.3333333333333,186.66666666666669 711.6666666666667,186.66666666666669 740.0,186.66666666666669" fill="none" stroke="#1f77b4" stroke-width="2" />
<rect x="600" y="60" width="10" height="10" fill="#1f77b4" />
<text x="620" y="70" font-family="sans-serif" font-size="12">llm-d-sim-a100-deployment (A100)</text>
<circle cx="60.0" cy="440.0" r="3" fill="#ff7f0e" />
<circle cx="88.33333333333333" cy="440.0" r="3" fill="#ff7f0e" />
<circle cx="116.66666666666666" cy="440.0" r="3" fill="#ff7f0e" />
<circle cx="145.0" cy="440.0" r="3" fill="#ff7f0e" />
<circle cx="173.33333333333331" cy="440.0" r="3" fill="#ff7f0e" />
<circle cx="201.66666666666669" cy="440.0" r="3" fill="#ff7f0e" />
<circle cx="230.0" cy="440.0" r="3" fill="#ff7f0e" />
<circle cx="258.33333333333337" cy="440.0" r="3" fill="#ff7f0e" />
<circle cx="286.66666666666663" cy="440.0" r="3" fill="#ff7f0e" />
<circle cx="315.0" cy="440.0" r="3" fill="#ff7f0e" />
<circle cx="343.33333333333337" cy="440.0" r="3" fill="#ff7f0e" />
<circle cx="371.66666666666663" cy="440.0" r="3" fill="#ff7f0e" />
<circle cx="400.0" cy="440.0" r="3" fill="#ff7f0e" />
<circle cx="428.3333333333333" cy="440.0" r="3" fill="#ff7f0e" />
<circle cx="456.6666666666667" cy="440.0" r="3" fill="#ff7f0e" />
<circle cx="485.0" cy="376.6666666666667" r="3" fill="#ff7f0e" />
<circle cx="513.3333333333333" cy="313.33333333333337" r="3" fill="#ff7f0e" />
<circle cx="541.6666666666667" cy="250.0" r="3" fill="#ff7f0e" />
<circle cx="570.0" cy="186.66666666666669" r="3" fill="#ff7f0e" />
<circle cx="598.3333333333333" cy="186.66666666666669" r="3" fill="#ff7f0e" />
<circle cx="626.6666666666667" cy="186.66666666666669" r="3" fill="#ff7f0e" />
<circle cx="655.0" cy="186.66666666666669" r="3" fill="#ff7f0e" />
<circle cx="683.3333333333333" cy="186.66666666666669" r="3" fill="#ff7f0e" />
<circle cx="711.6666666666667" cy="186.66666666666669" r="3" fill="#ff7f0e" />
<circle cx="740.0" cy="186.66666666666669" r="3" fill="#ff7f0e" />
<polyline points="60.0,440.0 88.33333333333333,440.0 116.66666666666666,440.0 145.0,440.0 173.33333333333331,440.0 201.66666666666669,440.0 230.0,440.0 258.33333333333337,440.0 286.66666666666663,440.0 315.0,440.0 343.33333333333337,440.0 371.66666666666663,440.0 400.0,440.0 428.3333333333333,440.0 456.6666666666667,440.0 485.0,376.6666666666667 513.3333333333333,313.33333333333337 541.6666666666667,250.0 570.0,186.66666666666669 598.3333333333333,186.66666666666669 626.6666666666667,186.66666666666669 655.0,186.66666666666669 683.3333333333333,186.66666666666669 711.6666666666667,186.66666666666669 740.0,186.66666666666669" fill="none" stroke="#ff7f0e" stroke-width="2" />
<rect x="600" y="80" width="10" height="10" fill="#ff7f0e" />
<text x="620" y="90" font-family="sans-serif" font-size="12">llm-d-sim-h100-deployment (H100)</text>
</svg>